#!OML:ASF H:\Punching\Project 1\Capture day 1\Session 1\female.ASF
:FULLY-SPECIFIED
:DEGREES
1990
root -1.16115 15.515 5.91865 14.4579 -3.63324 1.15457
lowerback -4.07556 -1.57095 0.57056
upperback -7.38425 -2.08344 0.948855
thorax -5.34925 -1.04985 0.679421
lowerneck -10.2615 4.86888 10.5704
upperneck 24.2295 6.78775 -8.35634
head 10.027 3.22007 -3.92891
rclavicle -2.62147e-014 0
rhumerus -43.4159 5.85485 -72.9376
rradius 76.7728
rwrist -17.8688
rhand -16.139 -21.2922
rfingers 7.12502
rthumb 10.0661 -51.0315
lclavicle -2.62147e-014 0
lhumerus -59.5449 -12.9973 83.4769
lradius 89.6621
lwrist 48.2146
lhand -14.568 42.655
lfingers 7.12502
lthumb 11.5814 72.315
rfemur -20.0709 3.7773 19.6593
rtibia 35.1552
rfoot -25.6639 -21.4713
rtoes 0.75915
lfemur -8.37592 -13.6502 -15.2383
ltibia 17.7014
lfoot -22.1092 26.0273
ltoes -3.01499
1991
root -1.16703 15.5103 5.92991 14.3404 -3.96128 1.09583
lowerback -4.10385 -1.5453 0.639518
upperback -7.41304 -2.05137 0.922201
thorax -5.36756 -1.03868 0.612982
lowerneck -10.131 4.92221 10.6104
upperneck 24.3671 6.88295 -8.38156
head 10.0645 3.26818 -3.93753
rclavicle -2.86747e-014 -1.31198e-014
rhumerus -42.4143 6.36125 -73.0934
rradius 78.6187
rwrist -18.9534
rhand -16.6411 -21.3613
rfingers 7.12502
rthumb 9.58163 -51.1235
lclavicle -2.86747e-014 -1.31198e-014
lhumerus -58.8381 -14.645 83.6243
lradius 91.9018
lwrist 49.4303
lhand -14.1981 42.4777
lfingers 7.12502
lthumb 11.9381 72.1173
rfemur -19.9593 3.89222 19.6942
rtibia 35.1831
rfoot -25.6736 -21.2763
rtoes 0.624551
lfemur -8.38986 -12.6544 -15.2603
ltibia 18.1788
lfoot -22.1555 25.3794
ltoes -3.55976
1992
root -1.17314 15.5058 5.94182 14.208 -4.28757 1.0561
lowerback -4.11328 -1.52797 0.703686
upperback -7.43401 -2.03061 0.887786
thorax -5.38823 -1.03316 0.541659
lowerneck -10.001 4.98424 10.6552
upperneck 24.4883 6.9915 -8.41775
head 10.0985 3.32166 -3.94891
rclavicle -6.95746e-015 -7.55382e-015
rhumerus -41.3577 6.88105 -73.2919
rradius 80.4345
rwrist -19.945
rhand -17.1225 -21.3922
rfingers 7.12502
rthumb 9.1171 -51.1752
lclavicle -6.95746e-015 -7.55382e-015
lhumerus -58.0702 -16.3206 83.7212
lradius 94.0725
lwrist 50.5164
lhand -13.7748 42.2074
lfingers 7.12502
lthumb 12.3462 71.8229
rfemur -19.8236 3.9943 19.7103
rtibia 35.2057
rfoot -25.6928 -21.0686
rtoes 0.494764
lfemur -8.43838 -11.603 -15.2951
ltibia 18.7492
lfoot -22.1961 24.6675
ltoes -4.21383
1993
root -1.17971 15.5013 5.95405 14.064 -4.60994 1.03836
lowerback -4.10617 -1.51842 0.756328
upperback -7.44836 -2.02037 0.845649
thorax -5.41101 -1.03252 0.46919
lowerneck -9.86225 5.05163 10.7039
upperneck 24.5843 7.10978 -8.46695
head 10.1235 3.3788 -3.96412
rclavicle 4.08627e-014 9.14409e-015
rhumerus -40.2513 7.40791 -73.5272
rradius 82.2115
rwrist -20.8128
rhand -17.5646 -21.387
rfingers 7.12502
rthumb 8.69048 -51.1881
lclavicle 4.08627e-014 9.14409e-015
lhumerus -57.2358 -18.0196 83.76
lradius 96.1917
lwrist 51.5291
lhand -13.375 41.9115
lfingers 7.12502
lthumb 12.7317 71.5033
rfemur -19.671 4.09179 19.7049
rtibia 35.2229
rfoot -25.7145 -20.8611
rtoes 0.356527
lfemur -8.53543 -10.5192 -15.3422
ltibia 19.4266
lfoot -22.2205 23.9163
ltoes -5.01932
1994
root -1.18654 15.497 5.96659 13.9055 -4.91332 1.04488
lowerback -4.07582 -1.51888 0.799263
upperback -7.45605 -2.02362 0.794256
thorax -5.43985 -1.03836 0.393204
lowerneck -9.71427 5.12289 10.7532
upperneck 24.6492 7.23449 -8.52332
head 10.1367 3.43839 -3.98077
rclavicle -1.14053e-014 -2.18663e-014
rhumerus -39.1048 7.93907 -73.7972
rradius 83.9556
rwrist -21.5677
rhand -17.988 -21.3583
rfingers 7.12502
rthumb 8.28191 -51.176
lclavicle -1.14053e-014 -2.18663e-014
lhumerus -56.3264 -19.7442 83.7365
lradius 98.264
lwrist 52.5387
lhand -13.0256 41.6944
lfingers 7.12502
lthumb 13.0685 71.265
rfemur -19.4933 4.16945 19.6781
rtibia 35.2317
rfoot -25.7443 -20.6519
rtoes 0.214558
lfemur -8.69359 -9.43823 -15.401
ltibia 20.2352
lfoot -22.2261 23.1436
ltoes -5.99041
1995
root -1.1935 15.4928 5.97928 13.7355 -5.19325 1.06858
lowerback -4.02978 -1.52975 0.842001
upperback -7.45458 -2.04094 0.735038
thorax -5.46819 -1.05144 0.309622
lowerneck -9.55672 5.19595 10.7984
upperneck 24.6794 7.36268 -8.58436
head 10.1361 3.49895 -3.99753
rclavicle 3.79803e-014 1.74931e-014
rhumerus -37.9118 8.47332 -74.101
rradius 85.6611
rwrist -22.2234
rhand -18.381 -21.2828
rfingers 7.12502
rthumb 7.90265 -51.1151
lclavicle 3.79803e-014 1.74931e-014
lhumerus -55.3117 -21.4849 83.6309
lradius 100.277
lwrist 53.5997
lhand -12.7294 41.622
lfingers 7.12502
lthumb 13.354 71.1741
rfemur -19.291 4.22322 19.6378
rtibia 35.2248
rfoot -25.7733 -20.4433
rtoes 0.0534419
lfemur -8.93232 -8.37907 -15.4619
ltibia 21.2098
lfoot -22.2242 22.3554
ltoes -7.09153
1996
root -1.20067 15.4892 5.99191 13.5665 -5.4452 1.09245
lowerback -3.97519 -1.54777 0.899418
upperback -7.44886 -2.06787 0.672446
thorax -5.49767 -1.07021 0.214652
lowerneck -9.38724 5.26716 10.8395
upperneck 24.6754 7.48928 -8.64972
head 10.1207 3.55827 -4.01496
rclavicle 2.19906e-015 3.97569e-015
rhumerus -36.687 9.0099 -74.4333
rradius 87.3395
rwrist -22.8027
rhand -18.7701 -21.1552
rfingers 7.12502
rthumb 7.52709 -51.0012
lclavicle 2.19906e-015 3.97569e-015
lhumerus -54.174 -23.2449 83.4368
lradius 102.224
lwrist 54.7405
lhand -12.5264 41.665
lfingers 7.12502
lthumb 13.5497 71.2042
rfemur -19.0739 4.25837 19.6031
rtibia 35.1952
rfoot -25.7951 -20.2414
rtoes -0.119737
lfemur -9.28714 -7.35603 -15.5016
ltibia 22.386
lfoot -22.1951 21.5706
ltoes -8.39487
1997
root -1.20793 15.4859 6.00451 13.3967 -5.6697 1.10208
lowerback -3.90451 -1.56982 0.984686
upperback -7.43927 -2.10004 0.609365
thorax -5.53347 -1.0931 0.10419
lowerneck -9.21062 5.33486 10.8761
upperneck 24.6429 7.61074 -8.71553
head 10.0929 3.61503 -4.03215
rclavicle -1.17283e-014 -1.35174e-014
rhumerus -35.4406 9.55528 -74.7943
rradius 89.0001
rwrist -23.3504
rhand -19.2073 -20.9694
rfingers 7.12502
rthumb 7.10509 -50.8301
lclavicle -1.17283e-014 -1.35174e-014
lhumerus -52.9079 -25.0343 83.1565
lradius 104.077
lwrist 55.9281
lhand -12.3918 41.7427
lfingers 7.12502
lthumb 13.6794 71.2731
rfemur -18.8352 4.28404 19.5894
rtibia 35.1342
rfoot -25.8015 -20.0525
rtoes -0.296999
lfemur -9.76944 -6.36019 -15.505
ltibia 23.8
lfoot -22.1585 20.7634
ltoes -9.80376
1998
root -1.21513 15.4833 6.01683 13.2329 -5.85905 1.09369
lowerback -3.82366 -1.59659 1.09989
upperback -7.42995 -2.1382 0.548959
thorax -5.57673 -1.12054 -0.0196982
lowerneck -9.01629 5.39568 10.9051
upperneck 24.582 7.72376 -8.78159
head 10.0503 3.66775 -4.04914
rclavicle 3.19422e-014 8.74653e-015
rhumerus -34.1853 10.1164 -75.1783
rradius 90.6481
rwrist -23.8837
rhand -19.6492 -20.7107
rfingers 7.12502
rthumb 6.67842 -50.5854
lclavicle 3.19422e-014 8.74653e-015
lhumerus -51.5028 -26.8375 82.783
lradius 105.824
lwrist 57.123
lhand -12.3339 41.8324
lfingers 7.12502
lthumb 13.7352 71.359
rfemur -18.5806 4.29708 19.6016
rtibia 35.0393
rfoot -25.7877 -19.8812
rtoes -0.478321
lfemur -10.4037 -5.39462 -15.464
ltibia 25.4724
lfoot -22.0918 19.9268
ltoes -11.3131
1999
root -1.22231 15.4811 6.02908 13.0731 -6.01756 1.04762
lowerback -3.72248 -1.62374 1.25783
upperback -7.41926 -2.17598 0.497692
thorax -5.6318 -1.14986 -0.157184
lowerneck -8.82215 5.45056 10.9268
upperneck 24.5059 7.82795 -8.84519
head 10.001 3.71612 -4.06497
rclavicle -2.11333e-014 -9.93923e-015
rhumerus -32.9356 10.7026 -75.5782
rradius 92.3006
rwrist -24.4328
rhand -20.0898 -20.4336
rfingers 7.12502
rthumb 6.25315 -50.3213
lclavicle -2.11333e-014 -9.93923e-015
lhumerus -49.9723 -28.658 82.3294
lradius 107.454
lwrist 58.2443
lhand -12.3465 41.8019
lfingers 7.12502
lthumb 13.723 71.3293
rfemur -18.3068 4.31809 19.661
rtibia 34.9109
rfoot -25.7513 -19.7397
rtoes -0.65675
lfemur -11.1873 -4.45241 -15.3585
ltibia 27.4069
lfoot -21.9846 19.0521
ltoes -12.8364
2000
root -1.229 15.4793 6.0413 12.9176 -6.13779 0.980067
lowerback -3.60679 -1.6564 1.44505
upperback -7.40615 -2.22028 0.452064
thorax -5.69411 -1.18391 -0.30447
lowerneck -8.63245 5.50008 10.9466
upperneck 24.4226 7.92437 -8.91102
head 9.94919 3.76052 -4.08217
rclavicle -8.54774e-015 -1.0138e-014
rhumerus -31.6842 11.3142 -75.9902
rradius 93.9463
rwrist -24.9861
rhand -20.5053 -20.1407
rfingers 7.12502
rthumb 5.85195 -50.0399
lclavicle -8.54774e-015 -1.0138e-014
lhumerus -48.32 -30.4831 81.7927
lradius 108.955
lwrist 59.2217
lhand -12.4171 41.5557
lfingers 7.12502
lthumb 13.655 71.0877
rfemur -18.0161 4.32639 19.7488
rtibia 34.7556
rfoot -25.6994 -19.6162
rtoes -0.826577
lfemur -12.1199 -3.55196 -15.2065
ltibia 29.5901
lfoot -21.8065 18.1424
ltoes -14.2932
